solid 0
facet normal 0 0 -1
outer loop
vertex -30 -7.5 0
vertex -37 -7.5 0
vertex -36.3819660112501 -4.90211303259031 0
endloop
endfacet
facet normal -0 0 -1
outer loop
vertex -36.3819660112501 -4.90211303259031 0
vertex -37 -7.5 0
vertex -37.6180339887499 -4.90211303259031 0
endloop
endfacet
facet normal 0 0 -1
outer loop
vertex -37 -7.5 0
vertex -38.7220754456429 -7.15745789630079 0
vertex -37.6180339887499 -4.90211303259031 0
endloop
endfacet
facet normal -0 0 -1
outer loop
vertex -37.6180339887499 -4.90211303259031 0
vertex -38.7220754456429 -7.15745789630079 0
vertex -38.6180339887499 -4.17557050458495 0
endloop
endfacet
facet normal 0 0 -1
outer loop
vertex -39 -3 0
vertex -41.5 0.5 0
vertex -38.6180339887499 -1.82442949541505 0
endloop
endfacet
facet normal 0 0 -1
outer loop
vertex -41.5 0.5 0
vertex -41.1573956140661 2.66311896062463 0
vertex -38.6180339887499 -1.82442949541505 0
endloop
endfacet
facet normal 0 0 -1
outer loop
vertex -38.6180339887499 -1.82442949541505 0
vertex -41.1573956140661 2.66311896062463 0
vertex -37.6180339887499 -1.09788696740969 0
endloop
endfacet
facet normal 0 0 -1
outer loop
vertex -41.1573956140661 2.66311896062463 0
vertex -40.1631189606246 4.61449676604731 0
vertex -37.6180339887499 -1.09788696740969 0
endloop
endfacet
facet normal 0 0 -1
outer loop
vertex -37.6180339887499 -1.09788696740969 0
vertex -40.1631189606246 4.61449676604731 0
vertex -36.3819660112501 -1.09788696740969 0
endloop
endfacet
facet normal 0 0 -1
outer loop
vertex -40.1631189606246 4.61449676604731 0
vertex -38.6144967660473 6.16311896062463 0
vertex -36.3819660112501 -1.09788696740969 0
endloop
endfacet
facet normal 0 0 -1
outer loop
vertex -36.3819660112501 -4.90211303259031 0
vertex -35.3819660112501 -4.17557050458495 0
vertex -30 -7.5 0
endloop
endfacet
facet normal 0 0 -1
outer loop
vertex -35.3819660112501 -4.17557050458495 0
vertex -35 -3 0
vertex -30 -7.5 0
endloop
endfacet
facet normal 0 0 -1
outer loop
vertex -30 -7.5 0
vertex -35 -3 0
vertex -30 7.5 0
endloop
endfacet
facet normal 0 0 -1
outer loop
vertex -35 -3 0
vertex -35.3819660112501 -1.82442949541505 0
vertex -30 7.5 0
endloop
endfacet
facet normal -0 0 -1
outer loop
vertex -30 7.5 0
vertex -35.3819660112501 -1.82442949541505 0
vertex -34.5 7.5 0
endloop
endfacet
facet normal 0 0 -1
outer loop
vertex -35.3819660112501 -1.82442949541505 0
vertex -36.3819660112501 -1.09788696740969 0
vertex -34.5 7.5 0
endloop
endfacet
facet normal 0 0 -1
outer loop
vertex -34.5 7.5 0
vertex -36.3819660112501 -1.09788696740969 0
vertex -36.6631189606246 7.15739561406607 0
endloop
endfacet
facet normal 0 0 -1
outer loop
vertex -36.3819660112501 -1.09788696740969 0
vertex -38.6144967660473 6.16311896062463 0
vertex -36.6631189606246 7.15739561406607 0
endloop
endfacet
facet normal 0 0 -1
outer loop
vertex -38.7220754456429 -7.15745789630079 0
vertex -40.1819805153395 -6.18198051533946 0
vertex -38.6180339887499 -4.17557050458495 0
endloop
endfacet
facet normal 0 0 -1
outer loop
vertex -40.1819805153395 -6.18198051533946 0
vertex -41.1574578963008 -4.7220754456429 0
vertex -38.6180339887499 -4.17557050458495 0
endloop
endfacet
facet normal -0 0 -1
outer loop
vertex -38.6180339887499 -4.17557050458495 0
vertex -41.1574578963008 -4.7220754456429 0
vertex -39 -3 0
endloop
endfacet
facet normal 0 0 -1
outer loop
vertex -41.1574578963008 -4.7220754456429 0
vertex -41.5 -3 0
vertex -39 -3 0
endloop
endfacet
facet normal -0 0 -1
outer loop
vertex -39 -3 0
vertex -41.5 -3 0
vertex -41.5 0.5 0
endloop
endfacet
facet normal -0 0 1
outer loop
vertex 36.3819660112501 -1.09788696740969 10
vertex 37.6180339887499 -1.09788696740969 10
vertex 41.5 0.5 10
endloop
endfacet
facet normal 0 0 1
outer loop
vertex 39 -3 10
vertex 38.6180339887499 -4.17557050458495 10
vertex 41.1574578963008 -4.7220754456429 10
endloop
endfacet
facet normal 0 -0 1
outer loop
vertex 35.3819660112501 -1.82442949541505 10
vertex 36.3819660112501 -1.09788696740969 10
vertex 17.5 -2.44929359829471e-016 10
endloop
endfacet
facet normal 0 -0 1
outer loop
vertex 41.1574578963008 -4.7220754456429 10
vertex 41.5 -3 10
vertex 39 -3 10
endloop
endfacet
facet normal 0 0 1
outer loop
vertex 41.5 -3 10
vertex 41.5 0.5 10
vertex 39 -3 10
endloop
endfacet
facet normal 0 -0 1
outer loop
vertex 39 -3 10
vertex 41.5 0.5 10
vertex 38.6180339887499 -1.82442949541505 10
endloop
endfacet
facet normal 0 0 1
outer loop
vertex 41.5 0.5 10
vertex 37.6180339887499 -1.09788696740969 10
vertex 38.6180339887499 -1.82442949541505 10
endloop
endfacet
facet normal 0 0 1
outer loop
vertex 36.3819660112501 -4.90211303259031 10
vertex 37 -7.5 10
vertex 37.6180339887499 -4.90211303259031 10
endloop
endfacet
facet normal 0 0 1
outer loop
vertex 37 -7.5 10
vertex 38.7220754456429 -7.15745789630079 10
vertex 37.6180339887499 -4.90211303259031 10
endloop
endfacet
facet normal -0 0 1
outer loop
vertex 37.6180339887499 -4.90211303259031 10
vertex 38.7220754456429 -7.15745789630079 10
vertex 38.6180339887499 -4.17557050458495 10
endloop
endfacet
facet normal 0 -0 1
outer loop
vertex 38.7220754456429 -7.15745789630079 10
vertex 40.1819805153395 -6.18198051533946 10
vertex 38.6180339887499 -4.17557050458495 10
endloop
endfacet
facet normal 0 0 1
outer loop
vertex 38.6180339887499 -4.17557050458495 10
vertex 40.1819805153395 -6.18198051533946 10
vertex 41.1574578963008 -4.7220754456429 10
endloop
endfacet
facet normal 0 0 1
outer loop
vertex -39 -3 10
vertex -41.1574578963008 -4.7220754456429 10
vertex -38.6180339887499 -4.17557050458495 10
endloop
endfacet
facet normal -0 0 1
outer loop
vertex -41.1574578963008 -4.7220754456429 10
vertex -40.1819805153395 -6.18198051533946 10
vertex -38.6180339887499 -4.17557050458495 10
endloop
endfacet
facet normal 0 0 1
outer loop
vertex -38.6180339887499 -4.17557050458495 10
vertex -40.1819805153395 -6.18198051533946 10
vertex -37.6180339887499 -4.90211303259031 10
endloop
endfacet
facet normal -0 0 1
outer loop
vertex -40.1819805153395 -6.18198051533946 10
vertex -38.7220754456429 -7.15745789630079 10
vertex -37.6180339887499 -4.90211303259031 10
endloop
endfacet
facet normal 0 0 1
outer loop
vertex -37.6180339887499 -4.90211303259031 10
vertex -38.7220754456429 -7.15745789630079 10
vertex -36.3819660112501 -4.90211303259031 10
endloop
endfacet
facet normal -0 0 1
outer loop
vertex -38.7220754456429 -7.15745789630079 10
vertex -37 -7.5 10
vertex -36.3819660112501 -4.90211303259031 10
endloop
endfacet
facet normal -0 0 1
outer loop
vertex -36.3819660112501 -4.90211303259031 10
vertex -37 -7.5 10
vertex -35.3819660112501 -4.17557050458495 10
endloop
endfacet
facet normal 0 0 1
outer loop
vertex -38.6180339887499 -1.82442949541505 10
vertex -41.5 0.5 10
vertex -39 -3 10
endloop
endfacet
facet normal 0 0 1
outer loop
vertex -41.5 0.5 10
vertex -41.5 -3 10
vertex -39 -3 10
endloop
endfacet
facet normal 0 0 1
outer loop
vertex -39 -3 10
vertex -41.5 -3 10
vertex -41.1574578963008 -4.7220754456429 10
endloop
endfacet
facet normal 0 0 1
outer loop
vertex 35.3819660112501 -1.82442949541505 10
vertex 17.5 -2.44929359829471e-016 10
vertex 35 -3 10
endloop
endfacet
facet normal 0 0 1
outer loop
vertex 17.5 -2.44929359829471e-016 10
vertex 17.1180339887499 -1.17557050458495 10
vertex 35 -3 10
endloop
endfacet
facet normal 0 0 1
outer loop
vertex 17.1180339887499 -1.17557050458495 10
vertex 16.1180339887499 -1.90211303259031 10
vertex 35 -3 10
endloop
endfacet
facet normal 0 0 1
outer loop
vertex 35 -3 10
vertex 16.1180339887499 -1.90211303259031 10
vertex 14.8819660112501 -1.90211303259031 10
endloop
endfacet
facet normal 0 0 1
outer loop
vertex -17.1180339887499 1.17557050458495 10
vertex -34.5 7.5 10
vertex -17.5 2.44929359829471e-016 10
endloop
endfacet
facet normal 0 0 1
outer loop
vertex -34.5 7.5 10
vertex -36.6631189606246 7.15739561406607 10
vertex -17.5 2.44929359829471e-016 10
endloop
endfacet
facet normal 0 0 1
outer loop
vertex -17.5 2.44929359829471e-016 10
vertex -36.6631189606246 7.15739561406607 10
vertex -38.6144967660473 6.16311896062463 10
endloop
endfacet
facet normal 0 0 1
outer loop
vertex -37 -7.5 10
vertex 37 -7.5 10
vertex -35.3819660112501 -4.17557050458495 10
endloop
endfacet
facet normal 0 0 1
outer loop
vertex 37 -7.5 10
vertex 36.3819660112501 -4.90211303259031 10
vertex -35.3819660112501 -4.17557050458495 10
endloop
endfacet
facet normal -0 0 1
outer loop
vertex -35.3819660112501 -4.17557050458495 10
vertex 36.3819660112501 -4.90211303259031 10
vertex -35 -3 10
endloop
endfacet
facet normal 0 0 1
outer loop
vertex 36.3819660112501 -4.90211303259031 10
vertex 35.3819660112501 -4.17557050458495 10
vertex -35 -3 10
endloop
endfacet
facet normal -0 0 1
outer loop
vertex -35 -3 10
vertex 35.3819660112501 -4.17557050458495 10
vertex -14.8819660112501 -1.90211303259031 10
endloop
endfacet
facet normal 0 0 1
outer loop
vertex 35.3819660112501 -4.17557050458495 10
vertex 35 -3 10
vertex -14.8819660112501 -1.90211303259031 10
endloop
endfacet
facet normal -0 0 1
outer loop
vertex -14.8819660112501 -1.90211303259031 10
vertex 35 -3 10
vertex -13.8819660112501 -1.17557050458495 10
endloop
endfacet
facet normal 0 0 1
outer loop
vertex 35 -3 10
vertex 14.8819660112501 -1.90211303259031 10
vertex -13.8819660112501 -1.17557050458495 10
endloop
endfacet
facet normal -0 0 1
outer loop
vertex -13.8819660112501 -1.17557050458495 10
vertex 14.8819660112501 -1.90211303259031 10
vertex -13.5 0 10
endloop
endfacet
facet normal 0 0 1
outer loop
vertex -14.8819660112501 -1.90211303259031 10
vertex -16.1180339887499 -1.90211303259031 10
vertex -35 -3 10
endloop
endfacet
facet normal 0 0 1
outer loop
vertex -16.1180339887499 -1.90211303259031 10
vertex -17.1180339887499 -1.17557050458495 10
vertex -35 -3 10
endloop
endfacet
facet normal 0 -0 1
outer loop
vertex -35 -3 10
vertex -17.1180339887499 -1.17557050458495 10
vertex -35.3819660112501 -1.82442949541505 10
endloop
endfacet
facet normal 0 0 1
outer loop
vertex -17.1180339887499 -1.17557050458495 10
vertex -17.5 2.44929359829471e-016 10
vertex -35.3819660112501 -1.82442949541505 10
endloop
endfacet
facet normal 0 -0 1
outer loop
vertex -35.3819660112501 -1.82442949541505 10
vertex -17.5 2.44929359829471e-016 10
vertex -36.3819660112501 -1.09788696740969 10
endloop
endfacet
facet normal 0 0 1
outer loop
vertex -17.5 2.44929359829471e-016 10
vertex -41.5 0.5 10
vertex -36.3819660112501 -1.09788696740969 10
endloop
endfacet
facet normal 0 0 1
outer loop
vertex -36.3819660112501 -1.09788696740969 10
vertex -41.5 0.5 10
vertex -37.6180339887499 -1.09788696740969 10
endloop
endfacet
facet normal 0 0 1
outer loop
vertex -41.5 0.5 10
vertex -38.6180339887499 -1.82442949541505 10
vertex -37.6180339887499 -1.09788696740969 10
endloop
endfacet
facet normal 0 0 1
outer loop
vertex -38.6144967660473 6.16311896062463 10
vertex -40.1631189606246 4.61449676604731 10
vertex -17.5 2.44929359829471e-016 10
endloop
endfacet
facet normal 0 0 1
outer loop
vertex -40.1631189606246 4.61449676604731 10
vertex -41.1573956140661 2.66311896062463 10
vertex -17.5 2.44929359829471e-016 10
endloop
endfacet
facet normal 0 0 1
outer loop
vertex -17.5 2.44929359829471e-016 10
vertex -41.1573956140661 2.66311896062463 10
vertex -41.5 0.5 10
endloop
endfacet
facet normal 0 -0 1
outer loop
vertex -17.1180339887499 1.17557050458495 10
vertex -16.1180339887499 1.90211303259031 10
vertex -34.5 7.5 10
endloop
endfacet
facet normal -0 -0 1
outer loop
vertex -16.1180339887499 1.90211303259031 10
vertex -14.8819660112501 1.90211303259031 10
vertex -34.5 7.5 10
endloop
endfacet
facet normal -0 0 1
outer loop
vertex -34.5 7.5 10
vertex -14.8819660112501 1.90211303259031 10
vertex 34.5 7.5 10
endloop
endfacet
facet normal -0 0 1
outer loop
vertex -14.8819660112501 1.90211303259031 10
vertex -13.8819660112501 1.17557050458495 10
vertex 34.5 7.5 10
endloop
endfacet
facet normal 0 0 1
outer loop
vertex 34.5 7.5 10
vertex -13.8819660112501 1.17557050458495 10
vertex 14.8819660112501 1.90211303259031 10
endloop
endfacet
facet normal 0 0 1
outer loop
vertex 14.8819660112501 -1.90211303259031 10
vertex 13.8819660112501 -1.17557050458495 10
vertex -13.5 0 10
endloop
endfacet
facet normal 0 0 1
outer loop
vertex 13.8819660112501 -1.17557050458495 10
vertex 13.5 0 10
vertex -13.5 0 10
endloop
endfacet
facet normal 0 -0 1
outer loop
vertex -13.5 0 10
vertex 13.5 0 10
vertex -13.8819660112501 1.17557050458495 10
endloop
endfacet
facet normal 0 -0 1
outer loop
vertex 13.5 0 10
vertex 13.8819660112501 1.17557050458495 10
vertex -13.8819660112501 1.17557050458495 10
endloop
endfacet
facet normal 0 0 1
outer loop
vertex -13.8819660112501 1.17557050458495 10
vertex 13.8819660112501 1.17557050458495 10
vertex 14.8819660112501 1.90211303259031 10
endloop
endfacet
facet normal 0 -0 1
outer loop
vertex 36.3819660112501 -1.09788696740969 10
vertex 41.5 0.5 10
vertex 17.5 -2.44929359829471e-016 10
endloop
endfacet
facet normal 0 0 1
outer loop
vertex 41.5 0.5 10
vertex 41.1573956140661 2.66311896062463 10
vertex 17.5 -2.44929359829471e-016 10
endloop
endfacet
facet normal 0 0 1
outer loop
vertex 17.5 -2.44929359829471e-016 10
vertex 41.1573956140661 2.66311896062463 10
vertex 40.1631189606246 4.61449676604731 10
endloop
endfacet
facet normal -0 0 1
outer loop
vertex 14.8819660112501 1.90211303259031 10
vertex 16.1180339887499 1.90211303259031 10
vertex 34.5 7.5 10
endloop
endfacet
facet normal -0 0 1
outer loop
vertex 16.1180339887499 1.90211303259031 10
vertex 17.1180339887499 1.17557050458495 10
vertex 34.5 7.5 10
endloop
endfacet
facet normal 0 0 1
outer loop
vertex 34.5 7.5 10
vertex 17.1180339887499 1.17557050458495 10
vertex 36.6631189606246 7.15739561406607 10
endloop
endfacet
facet normal -0 0 1
outer loop
vertex 17.1180339887499 1.17557050458495 10
vertex 17.5 -2.44929359829471e-016 10
vertex 36.6631189606246 7.15739561406607 10
endloop
endfacet
facet normal 0 0 1
outer loop
vertex 36.6631189606246 7.15739561406607 10
vertex 17.5 -2.44929359829471e-016 10
vertex 38.6144967660473 6.16311896062463 10
endloop
endfacet
facet normal 0 0 1
outer loop
vertex 17.5 -2.44929359829471e-016 10
vertex 40.1631189606246 4.61449676604731 10
vertex 38.6144967660473 6.16311896062463 10
endloop
endfacet
facet normal 0 -1 0
outer loop
vertex -37 -7.5 0
vertex -30 -7.5 0
vertex -30 -7.5 2
endloop
endfacet
facet normal 0 -1 0
outer loop
vertex -37 -7.5 0
vertex -30 -7.5 2
vertex -37 -7.5 10
endloop
endfacet
facet normal 0 -1 0
outer loop
vertex -30 -7.5 2
vertex -29.6955181300451 -7.5 3.53073372946036
vertex -37 -7.5 10
endloop
endfacet
facet normal 0 -1 0
outer loop
vertex -37 -7.5 10
vertex -29.6955181300451 -7.5 3.53073372946036
vertex -28.8284271247462 -7.5 4.82842712474619
endloop
endfacet
facet normal 0 -1 0
outer loop
vertex 27.5307337294604 -7.5 5.69551813004515
vertex 28.8284271247462 -7.5 4.82842712474619
vertex 37 -7.5 10
endloop
endfacet
facet normal 0 -1 0
outer loop
vertex 28.8284271247462 -7.5 4.82842712474619
vertex 29.6955181300451 -7.5 3.53073372946036
vertex 37 -7.5 10
endloop
endfacet
facet normal 0 -1 -0
outer loop
vertex 37 -7.5 10
vertex 29.6955181300451 -7.5 3.53073372946036
vertex 37 -7.5 0
endloop
endfacet
facet normal 0 -1 0
outer loop
vertex 29.6955181300451 -7.5 3.53073372946036
vertex 30 -7.5 2
vertex 37 -7.5 0
endloop
endfacet
facet normal 0 -1 0
outer loop
vertex 37 -7.5 0
vertex 30 -7.5 2
vertex 30 -7.5 0
endloop
endfacet
facet normal 0 -1 0
outer loop
vertex -28.8284271247462 -7.5 4.82842712474619
vertex -27.5307337294604 -7.5 5.69551813004515
vertex -37 -7.5 10
endloop
endfacet
facet normal 0 -1 0
outer loop
vertex -27.5307337294604 -7.5 5.69551813004515
vertex -26 -7.5 6
vertex -37 -7.5 10
endloop
endfacet
facet normal 0 -1 0
outer loop
vertex -37 -7.5 10
vertex -26 -7.5 6
vertex 37 -7.5 10
endloop
endfacet
facet normal 0 -1 0
outer loop
vertex -26 -7.5 6
vertex 26 -7.5 6
vertex 37 -7.5 10
endloop
endfacet
facet normal 0 -1 0
outer loop
vertex 37 -7.5 10
vertex 26 -7.5 6
vertex 27.5307337294604 -7.5 5.69551813004515
endloop
endfacet
facet normal -1 0 0
outer loop
vertex -41.5 0.5 0
vertex -41.5 -3 0
vertex -41.5 0.5 10
endloop
endfacet
facet normal -1 0 0
outer loop
vertex -41.5 -3 0
vertex -41.5 -3 10
vertex -41.5 0.5 10
endloop
endfacet
facet normal 0 1 -0
outer loop
vertex 29.6955181300451 7.5 3.53073372946036
vertex 28.8284271247462 7.5 4.82842712474619
vertex 34.5 7.5 10
endloop
endfacet
facet normal -0 1 0
outer loop
vertex 29.6955181300451 7.5 3.53073372946036
vertex 34.5 7.5 10
vertex 30 7.5 2
endloop
endfacet
facet normal 0 1 0
outer loop
vertex 34.5 7.5 10
vertex 34.5 7.5 0
vertex 30 7.5 2
endloop
endfacet
facet normal 0 1 0
outer loop
vertex 30 7.5 2
vertex 34.5 7.5 0
vertex 30 7.5 0
endloop
endfacet
facet normal 0 1 0
outer loop
vertex -27.5307337294604 7.5 5.69551813004515
vertex -28.8284271247462 7.5 4.82842712474619
vertex -34.5 7.5 10
endloop
endfacet
facet normal 0 1 0
outer loop
vertex -28.8284271247462 7.5 4.82842712474619
vertex -29.6955181300451 7.5 3.53073372946036
vertex -34.5 7.5 10
endloop
endfacet
facet normal 0 1 0
outer loop
vertex -34.5 7.5 10
vertex -29.6955181300451 7.5 3.53073372946036
vertex -34.5 7.5 0
endloop
endfacet
facet normal 0 1 0
outer loop
vertex -29.6955181300451 7.5 3.53073372946036
vertex -30 7.5 2
vertex -34.5 7.5 0
endloop
endfacet
facet normal 0 1 0
outer loop
vertex -34.5 7.5 0
vertex -30 7.5 2
vertex -30 7.5 0
endloop
endfacet
facet normal 0 1 -0
outer loop
vertex 28.8284271247462 7.5 4.82842712474619
vertex 27.5307337294604 7.5 5.69551813004515
vertex 34.5 7.5 10
endloop
endfacet
facet normal 0 1 -0
outer loop
vertex 27.5307337294604 7.5 5.69551813004515
vertex 26 7.5 6
vertex 34.5 7.5 10
endloop
endfacet
facet normal 0 1 0
outer loop
vertex 34.5 7.5 10
vertex 26 7.5 6
vertex -34.5 7.5 10
endloop
endfacet
facet normal 0 1 0
outer loop
vertex 26 7.5 6
vertex -26 7.5 6
vertex -34.5 7.5 10
endloop
endfacet
facet normal 0 1 0
outer loop
vertex -34.5 7.5 10
vertex -26 7.5 6
vertex -27.5307337294604 7.5 5.69551813004515
endloop
endfacet
facet normal -0 -0 -1
outer loop
vertex 34.5 7.5 0
vertex 36.3819660112501 -1.09788696740969 0
vertex 30 7.5 0
endloop
endfacet
facet normal -0 0 -1
outer loop
vertex 36.3819660112501 -1.09788696740969 0
vertex 35.3819660112501 -1.82442949541505 0
vertex 30 7.5 0
endloop
endfacet
facet normal 0 0 -1
outer loop
vertex 30 7.5 0
vertex 35.3819660112501 -1.82442949541505 0
vertex 30 -7.5 0
endloop
endfacet
facet normal 0 -0 -1
outer loop
vertex 39 -3 0
vertex 41.1574578963008 -4.7220754456429 0
vertex 38.6180339887499 -4.17557050458495 0
endloop
endfacet
facet normal -0 0 -1
outer loop
vertex 41.1574578963008 -4.7220754456429 0
vertex 40.1819805153395 -6.18198051533946 0
vertex 38.6180339887499 -4.17557050458495 0
endloop
endfacet
facet normal 0 -0 -1
outer loop
vertex 38.6180339887499 -4.17557050458495 0
vertex 40.1819805153395 -6.18198051533946 0
vertex 37.6180339887499 -4.90211303259031 0
endloop
endfacet
facet normal -0 0 -1
outer loop
vertex 40.1819805153395 -6.18198051533946 0
vertex 38.7220754456429 -7.15745789630079 0
vertex 37.6180339887499 -4.90211303259031 0
endloop
endfacet
facet normal -0 -0 -1
outer loop
vertex 37.6180339887499 -4.90211303259031 0
vertex 38.7220754456429 -7.15745789630079 0
vertex 36.3819660112501 -4.90211303259031 0
endloop
endfacet
facet normal -0 0 -1
outer loop
vertex 38.7220754456429 -7.15745789630079 0
vertex 37 -7.5 0
vertex 36.3819660112501 -4.90211303259031 0
endloop
endfacet
facet normal -0 -0 -1
outer loop
vertex 36.3819660112501 -4.90211303259031 0
vertex 37 -7.5 0
vertex 35.3819660112501 -4.17557050458495 0
endloop
endfacet
facet normal 0 0 -1
outer loop
vertex 37 -7.5 0
vertex 30 -7.5 0
vertex 35.3819660112501 -4.17557050458495 0
endloop
endfacet
facet normal -0 0 -1
outer loop
vertex 35.3819660112501 -4.17557050458495 0
vertex 30 -7.5 0
vertex 35 -3 0
endloop
endfacet
facet normal 0 0 -1
outer loop
vertex 30 -7.5 0
vertex 35.3819660112501 -1.82442949541505 0
vertex 35 -3 0
endloop
endfacet
facet normal 0 0 -1
outer loop
vertex 34.5 7.5 0
vertex 36.6631189606246 7.15739561406607 0
vertex 36.3819660112501 -1.09788696740969 0
endloop
endfacet
facet normal 0 -0 -1
outer loop
vertex 36.6631189606246 7.15739561406607 0
vertex 38.6144967660473 6.16311896062463 0
vertex 36.3819660112501 -1.09788696740969 0
endloop
endfacet
facet normal 0 0 -1
outer loop
vertex 36.3819660112501 -1.09788696740969 0
vertex 38.6144967660473 6.16311896062463 0
vertex 37.6180339887499 -1.09788696740969 0
endloop
endfacet
facet normal 0 -0 -1
outer loop
vertex 38.6144967660473 6.16311896062463 0
vertex 40.1631189606246 4.61449676604731 0
vertex 37.6180339887499 -1.09788696740969 0
endloop
endfacet
facet normal 0 -0 -1
outer loop
vertex 40.1631189606246 4.61449676604731 0
vertex 41.1573956140661 2.66311896062463 0
vertex 37.6180339887499 -1.09788696740969 0
endloop
endfacet
facet normal 0 0 -1
outer loop
vertex 37.6180339887499 -1.09788696740969 0
vertex 41.1573956140661 2.66311896062463 0
vertex 38.6180339887499 -1.82442949541505 0
endloop
endfacet
facet normal 0 -0 -1
outer loop
vertex 41.1573956140661 2.66311896062463 0
vertex 41.5 0.5 0
vertex 38.6180339887499 -1.82442949541505 0
endloop
endfacet
facet normal 0 0 -1
outer loop
vertex 38.6180339887499 -1.82442949541505 0
vertex 41.5 0.5 0
vertex 39 -3 0
endloop
endfacet
facet normal 0 -0 -1
outer loop
vertex 41.5 0.5 0
vertex 41.5 -3 0
vertex 39 -3 0
endloop
endfacet
facet normal 0 0 -1
outer loop
vertex 39 -3 0
vertex 41.5 -3 0
vertex 41.1574578963008 -4.7220754456429 0
endloop
endfacet
facet normal 1 0 0
outer loop
vertex 41.5 0.5 10
vertex 41.5 -3 10
vertex 41.5 0.5 0
endloop
endfacet
facet normal 1 0 0
outer loop
vertex 41.5 -3 10
vertex 41.5 -3 0
vertex 41.5 0.5 0
endloop
endfacet
facet normal 0 0 -1
outer loop
vertex -26 -7.5 6
vertex -16.1180339887499 -1.90211303259031 6
vertex -14.8819660112501 -1.90211303259031 6
endloop
endfacet
facet normal -0 0 -1
outer loop
vertex -16.1180339887499 1.90211303259031 6
vertex -17.1180339887499 1.17557050458495 6
vertex -26 7.5 6
endloop
endfacet
facet normal -0 0 -1
outer loop
vertex -17.1180339887499 1.17557050458495 6
vertex -17.5 2.44929359829471e-016 6
vertex -26 7.5 6
endloop
endfacet
facet normal 0 0 -1
outer loop
vertex -26 7.5 6
vertex -17.5 2.44929359829471e-016 6
vertex -26 -7.5 6
endloop
endfacet
facet normal 0 -0 -1
outer loop
vertex -17.5 2.44929359829471e-016 6
vertex -17.1180339887499 -1.17557050458495 6
vertex -26 -7.5 6
endloop
endfacet
facet normal 0 0 -1
outer loop
vertex -26 -7.5 6
vertex -17.1180339887499 -1.17557050458495 6
vertex -16.1180339887499 -1.90211303259031 6
endloop
endfacet
facet normal -0 -0 -1
outer loop
vertex 16.1180339887499 -1.90211303259031 6
vertex 26 -7.5 6
vertex 14.8819660112501 -1.90211303259031 6
endloop
endfacet
facet normal 0 0 -1
outer loop
vertex 26 -7.5 6
vertex -26 -7.5 6
vertex 14.8819660112501 -1.90211303259031 6
endloop
endfacet
facet normal -0 0 -1
outer loop
vertex 14.8819660112501 -1.90211303259031 6
vertex -26 -7.5 6
vertex 13.8819660112501 -1.17557050458495 6
endloop
endfacet
facet normal 0 0 -1
outer loop
vertex -26 -7.5 6
vertex -14.8819660112501 -1.90211303259031 6
vertex 13.8819660112501 -1.17557050458495 6
endloop
endfacet
facet normal -0 0 -1
outer loop
vertex 13.8819660112501 -1.17557050458495 6
vertex -14.8819660112501 -1.90211303259031 6
vertex 13.5 4.89858719658941e-016 6
endloop
endfacet
facet normal 0 0 -1
outer loop
vertex -16.1180339887499 1.90211303259031 6
vertex -26 7.5 6
vertex -14.8819660112501 1.90211303259031 6
endloop
endfacet
facet normal 0 0 -1
outer loop
vertex -26 7.5 6
vertex 26 7.5 6
vertex -14.8819660112501 1.90211303259031 6
endloop
endfacet
facet normal 0 0 -1
outer loop
vertex -14.8819660112501 1.90211303259031 6
vertex 26 7.5 6
vertex -13.8819660112501 1.17557050458495 6
endloop
endfacet
facet normal 0 0 -1
outer loop
vertex 16.1180339887499 -1.90211303259031 6
vertex 17.1180339887499 -1.17557050458495 6
vertex 26 -7.5 6
endloop
endfacet
facet normal 0 0 -1
outer loop
vertex 17.1180339887499 -1.17557050458495 6
vertex 17.5 -7.34788079488412e-016 6
vertex 26 -7.5 6
endloop
endfacet
facet normal 0 0 -1
outer loop
vertex 26 -7.5 6
vertex 17.5 -7.34788079488412e-016 6
vertex 26 7.5 6
endloop
endfacet
facet normal 0 0 -1
outer loop
vertex 17.5 -7.34788079488412e-016 6
vertex 17.1180339887499 1.17557050458495 6
vertex 26 7.5 6
endloop
endfacet
facet normal 0 0 -1
outer loop
vertex -14.8819660112501 -1.90211303259031 6
vertex -13.8819660112501 -1.17557050458495 6
vertex 13.5 4.89858719658941e-016 6
endloop
endfacet
facet normal 0 0 -1
outer loop
vertex -13.8819660112501 -1.17557050458495 6
vertex -13.5 -4.89858719658941e-016 6
vertex 13.5 4.89858719658941e-016 6
endloop
endfacet
facet normal -0 0 -1
outer loop
vertex 13.5 4.89858719658941e-016 6
vertex -13.5 -4.89858719658941e-016 6
vertex 13.8819660112501 1.17557050458495 6
endloop
endfacet
facet normal 0 0 -1
outer loop
vertex -13.5 -4.89858719658941e-016 6
vertex -13.8819660112501 1.17557050458495 6
vertex 13.8819660112501 1.17557050458495 6
endloop
endfacet
facet normal -0 0 -1
outer loop
vertex 13.8819660112501 1.17557050458495 6
vertex -13.8819660112501 1.17557050458495 6
vertex 14.8819660112501 1.90211303259031 6
endloop
endfacet
facet normal 0 0 -1
outer loop
vertex -13.8819660112501 1.17557050458495 6
vertex 26 7.5 6
vertex 14.8819660112501 1.90211303259031 6
endloop
endfacet
facet normal 0 0 -1
outer loop
vertex 14.8819660112501 1.90211303259031 6
vertex 26 7.5 6
vertex 16.1180339887499 1.90211303259031 6
endloop
endfacet
facet normal 0 0 -1
outer loop
vertex 26 7.5 6
vertex 17.1180339887499 1.17557050458495 6
vertex 16.1180339887499 1.90211303259031 6
endloop
endfacet
facet normal 1 -0 0
outer loop
vertex -30 -7.5 2
vertex -30 -7.5 0
vertex -30 7.5 2
endloop
endfacet
facet normal 1 0 0
outer loop
vertex -30 -7.5 0
vertex -30 7.5 0
vertex -30 7.5 2
endloop
endfacet
facet normal -1 -0 -0
outer loop
vertex 30 7.5 2
vertex 30 7.5 0
vertex 30 -7.5 2
endloop
endfacet
facet normal -1 0 0
outer loop
vertex 30 7.5 0
vertex 30 -7.5 0
vertex 30 -7.5 2
endloop
endfacet
facet normal 0.195090322016128 0 -0.980785280403231
outer loop
vertex -26 7.5 6
vertex -26 -7.5 6
vertex -27.5307337294604 -7.5 5.69551813004515
endloop
endfacet
facet normal 0.195090322016128 -3.48817655123896e-018 -0.980785280403231
outer loop
vertex -26 7.5 6
vertex -27.5307337294604 -7.5 5.69551813004515
vertex -27.5307337294604 7.5 5.69551813004515
endloop
endfacet
facet normal 0.555570233019603 0 -0.831469612302545
outer loop
vertex -27.5307337294604 -7.5 5.69551813004515
vertex -28.8284271247462 -7.5 4.82842712474619
vertex -27.5307337294604 7.5 5.69551813004515
endloop
endfacet
facet normal 0.555570233019603 0 -0.831469612302545
outer loop
vertex -27.5307337294604 7.5 5.69551813004515
vertex -28.8284271247462 -7.5 4.82842712474619
vertex -28.8284271247462 7.5 4.82842712474619
endloop
endfacet
facet normal 0.831469612302545 0 -0.555570233019602
outer loop
vertex -28.8284271247462 -7.5 4.82842712474619
vertex -29.6955181300451 -7.5 3.53073372946036
vertex -28.8284271247462 7.5 4.82842712474619
endloop
endfacet
facet normal 0.831469612302545 0 -0.555570233019602
outer loop
vertex -28.8284271247462 7.5 4.82842712474619
vertex -29.6955181300451 -7.5 3.53073372946036
vertex -29.6955181300451 7.5 3.53073372946036
endloop
endfacet
facet normal 0.98078528040323 0 -0.19509032201613
outer loop
vertex -29.6955181300451 -7.5 3.53073372946036
vertex -30 -7.5 2
vertex -29.6955181300451 7.5 3.53073372946036
endloop
endfacet
facet normal 0.98078528040323 0 -0.19509032201613
outer loop
vertex -29.6955181300451 7.5 3.53073372946036
vertex -30 -7.5 2
vertex -30 7.5 2
endloop
endfacet
facet normal -0.195090322016128 0 -0.98078528040323
outer loop
vertex 26 -7.5 6
vertex 26 7.5 6
vertex 27.5307337294604 7.5 5.69551813004515
endloop
endfacet
facet normal -0.195090322016128 0 -0.98078528040323
outer loop
vertex 26 -7.5 6
vertex 27.5307337294604 7.5 5.69551813004515
vertex 27.5307337294604 -7.5 5.69551813004515
endloop
endfacet
facet normal -0.555570233019602 -0 -0.831469612302545
outer loop
vertex 27.5307337294604 7.5 5.69551813004515
vertex 28.8284271247462 7.5 4.82842712474619
vertex 27.5307337294604 -7.5 5.69551813004515
endloop
endfacet
facet normal -0.555570233019602 0 -0.831469612302545
outer loop
vertex 27.5307337294604 -7.5 5.69551813004515
vertex 28.8284271247462 7.5 4.82842712474619
vertex 28.8284271247462 -7.5 4.82842712474619
endloop
endfacet
facet normal -0.831469612302545 -0 -0.555570233019602
outer loop
vertex 28.8284271247462 7.5 4.82842712474619
vertex 29.6955181300451 7.5 3.53073372946036
vertex 28.8284271247462 -7.5 4.82842712474619
endloop
endfacet
facet normal -0.831469612302545 0 -0.555570233019602
outer loop
vertex 28.8284271247462 -7.5 4.82842712474619
vertex 29.6955181300451 7.5 3.53073372946036
vertex 29.6955181300451 -7.5 3.53073372946036
endloop
endfacet
facet normal -0.98078528040323 -0 -0.19509032201613
outer loop
vertex 29.6955181300451 7.5 3.53073372946036
vertex 30 7.5 2
vertex 29.6955181300451 -7.5 3.53073372946036
endloop
endfacet
facet normal -0.98078528040323 -3.48817655123896e-018 -0.19509032201613
outer loop
vertex 29.6955181300451 -7.5 3.53073372946036
vertex 30 7.5 2
vertex 30 -7.5 2
endloop
endfacet
facet normal -0.951056516295153 0.309016994374947 0
outer loop
vertex -13.8819660112501 -1.17557050458495 6
vertex -13.5 -4.89858719658941e-016 10
vertex -13.5 -4.89858719658941e-016 6
endloop
endfacet
facet normal -0.951056516295154 -0.309016994374946 -0
outer loop
vertex -13.5 -4.89858719658941e-016 10
vertex -13.8819660112501 1.17557050458495 10
vertex -13.5 -4.89858719658941e-016 6
endloop
endfacet
facet normal -0.951056516295154 -0.309016994374946 0
outer loop
vertex -13.5 -4.89858719658941e-016 6
vertex -13.8819660112501 1.17557050458495 10
vertex -13.8819660112501 1.17557050458495 6
endloop
endfacet
facet normal -0.587785252292473 -0.809016994374948 -0
outer loop
vertex -13.8819660112501 1.17557050458495 10
vertex -14.8819660112501 1.90211303259031 10
vertex -13.8819660112501 1.17557050458495 6
endloop
endfacet
facet normal -0.587785252292473 -0.809016994374948 2.90505758227848e-017
outer loop
vertex -13.8819660112501 1.17557050458495 6
vertex -14.8819660112501 1.90211303259031 10
vertex -14.8819660112501 1.90211303259031 6
endloop
endfacet
facet normal -1.79637858893622e-016 -1 -0
outer loop
vertex -14.8819660112501 1.90211303259031 10
vertex -16.1180339887499 1.90211303259031 10
vertex -14.8819660112501 1.90211303259031 6
endloop
endfacet
facet normal -1.79637858893622e-016 -1 -6.45052363141491e-033
outer loop
vertex -14.8819660112501 1.90211303259031 6
vertex -16.1180339887499 1.90211303259031 10
vertex -16.1180339887499 1.90211303259031 6
endloop
endfacet
facet normal 0.587785252292472 -0.809016994374948 0
outer loop
vertex -16.1180339887499 1.90211303259031 10
vertex -17.1180339887499 1.17557050458495 10
vertex -16.1180339887499 1.90211303259031 6
endloop
endfacet
facet normal 0.587785252292472 -0.809016994374948 0
outer loop
vertex -16.1180339887499 1.90211303259031 6
vertex -17.1180339887499 1.17557050458495 10
vertex -17.1180339887499 1.17557050458495 6
endloop
endfacet
facet normal 0.951056516295154 -0.309016994374946 0
outer loop
vertex -17.1180339887499 1.17557050458495 10
vertex -17.5 2.44929359829471e-016 10
vertex -17.1180339887499 1.17557050458495 6
endloop
endfacet
facet normal 0.951056516295154 -0.309016994374946 0
outer loop
vertex -17.1180339887499 1.17557050458495 6
vertex -17.5 2.44929359829471e-016 10
vertex -17.5 2.44929359829471e-016 6
endloop
endfacet
facet normal 0.951056516295154 0.309016994374946 0
outer loop
vertex -17.5 2.44929359829471e-016 10
vertex -17.1180339887499 -1.17557050458495 10
vertex -17.5 2.44929359829471e-016 6
endloop
endfacet
facet normal 0.951056516295154 0.309016994374946 0
outer loop
vertex -17.5 2.44929359829471e-016 6
vertex -17.1180339887499 -1.17557050458495 10
vertex -17.1180339887499 -1.17557050458495 6
endloop
endfacet
facet normal 0.587785252292472 0.809016994374948 0
outer loop
vertex -17.1180339887499 -1.17557050458495 10
vertex -16.1180339887499 -1.90211303259031 10
vertex -17.1180339887499 -1.17557050458495 6
endloop
endfacet
facet normal 0.587785252292472 0.809016994374948 0
outer loop
vertex -17.1180339887499 -1.17557050458495 6
vertex -16.1180339887499 -1.90211303259031 10
vertex -16.1180339887499 -1.90211303259031 6
endloop
endfacet
facet normal 1.79637858893622e-016 1 0
outer loop
vertex -16.1180339887499 -1.90211303259031 10
vertex -14.8819660112501 -1.90211303259031 10
vertex -16.1180339887499 -1.90211303259031 6
endloop
endfacet
facet normal 1.79637858893622e-016 1 -6.45052363141491e-033
outer loop
vertex -16.1180339887499 -1.90211303259031 6
vertex -14.8819660112501 -1.90211303259031 10
vertex -14.8819660112501 -1.90211303259031 6
endloop
endfacet
facet normal -0.587785252292473 0.809016994374947 0
outer loop
vertex -14.8819660112501 -1.90211303259031 10
vertex -13.8819660112501 -1.17557050458495 10
vertex -14.8819660112501 -1.90211303259031 6
endloop
endfacet
facet normal -0.587785252292473 0.809016994374948 0
outer loop
vertex -14.8819660112501 -1.90211303259031 6
vertex -13.8819660112501 -1.17557050458495 10
vertex -13.8819660112501 -1.17557050458495 6
endloop
endfacet
facet normal -0.951056516295154 0.309016994374947 0
outer loop
vertex -13.8819660112501 -1.17557050458495 10
vertex -13.5 -4.89858719658941e-016 10
vertex -13.8819660112501 -1.17557050458495 6
endloop
endfacet
facet normal 0.951056516295153 -0.309016994374947 0
outer loop
vertex 13.8819660112501 1.17557050458495 6
vertex 13.5 4.89858719658941e-016 10
vertex 13.5 4.89858719658941e-016 6
endloop
endfacet
facet normal 0.951056516295154 0.309016994374946 0
outer loop
vertex 13.5 4.89858719658941e-016 10
vertex 13.8819660112501 -1.17557050458495 10
vertex 13.5 4.89858719658941e-016 6
endloop
endfacet
facet normal 0.951056516295154 0.309016994374946 0
outer loop
vertex 13.5 4.89858719658941e-016 6
vertex 13.8819660112501 -1.17557050458495 10
vertex 13.8819660112501 -1.17557050458495 6
endloop
endfacet
facet normal 0.587785252292473 0.809016994374948 0
outer loop
vertex 13.8819660112501 -1.17557050458495 10
vertex 14.8819660112501 -1.90211303259031 10
vertex 13.8819660112501 -1.17557050458495 6
endloop
endfacet
facet normal 0.587785252292473 0.809016994374948 2.90505758227848e-017
outer loop
vertex 13.8819660112501 -1.17557050458495 6
vertex 14.8819660112501 -1.90211303259031 10
vertex 14.8819660112501 -1.90211303259031 6
endloop
endfacet
facet normal 1.79637858893622e-016 1 0
outer loop
vertex 14.8819660112501 -1.90211303259031 10
vertex 16.1180339887499 -1.90211303259031 10
vertex 14.8819660112501 -1.90211303259031 6
endloop
endfacet
facet normal 1.79637858893622e-016 1 -6.45052363141491e-033
outer loop
vertex 14.8819660112501 -1.90211303259031 6
vertex 16.1180339887499 -1.90211303259031 10
vertex 16.1180339887499 -1.90211303259031 6
endloop
endfacet
facet normal -0.587785252292472 0.809016994374948 0
outer loop
vertex 16.1180339887499 -1.90211303259031 10
vertex 17.1180339887499 -1.17557050458495 10
vertex 16.1180339887499 -1.90211303259031 6
endloop
endfacet
facet normal -0.587785252292472 0.809016994374948 0
outer loop
vertex 16.1180339887499 -1.90211303259031 6
vertex 17.1180339887499 -1.17557050458495 10
vertex 17.1180339887499 -1.17557050458495 6
endloop
endfacet
facet normal -0.951056516295154 0.309016994374946 0
outer loop
vertex 17.1180339887499 -1.17557050458495 10
vertex 17.5 -2.44929359829471e-016 10
vertex 17.1180339887499 -1.17557050458495 6
endloop
endfacet
facet normal -0.951056516295154 0.309016994374946 0
outer loop
vertex 17.1180339887499 -1.17557050458495 6
vertex 17.5 -2.44929359829471e-016 10
vertex 17.5 -2.44929359829471e-016 6
endloop
endfacet
facet normal -0.951056516295154 -0.309016994374946 -0
outer loop
vertex 17.5 -2.44929359829471e-016 10
vertex 17.1180339887499 1.17557050458495 10
vertex 17.5 -2.44929359829471e-016 6
endloop
endfacet
facet normal -0.951056516295154 -0.309016994374946 0
outer loop
vertex 17.5 -2.44929359829471e-016 6
vertex 17.1180339887499 1.17557050458495 10
vertex 17.1180339887499 1.17557050458495 6
endloop
endfacet
facet normal -0.587785252292472 -0.809016994374948 -0
outer loop
vertex 17.1180339887499 1.17557050458495 10
vertex 16.1180339887499 1.90211303259031 10
vertex 17.1180339887499 1.17557050458495 6
endloop
endfacet
facet normal -0.587785252292472 -0.809016994374948 0
outer loop
vertex 17.1180339887499 1.17557050458495 6
vertex 16.1180339887499 1.90211303259031 10
vertex 16.1180339887499 1.90211303259031 6
endloop
endfacet
facet normal -1.79637858893622e-016 -1 -0
outer loop
vertex 16.1180339887499 1.90211303259031 10
vertex 14.8819660112501 1.90211303259031 10
vertex 16.1180339887499 1.90211303259031 6
endloop
endfacet
facet normal -1.79637858893622e-016 -1 -6.45052363141491e-033
outer loop
vertex 16.1180339887499 1.90211303259031 6
vertex 14.8819660112501 1.90211303259031 10
vertex 14.8819660112501 1.90211303259031 6
endloop
endfacet
facet normal 0.587785252292473 -0.809016994374947 0
outer loop
vertex 14.8819660112501 1.90211303259031 10
vertex 13.8819660112501 1.17557050458495 10
vertex 14.8819660112501 1.90211303259031 6
endloop
endfacet
facet normal 0.587785252292473 -0.809016994374948 0
outer loop
vertex 14.8819660112501 1.90211303259031 6
vertex 13.8819660112501 1.17557050458495 10
vertex 13.8819660112501 1.17557050458495 6
endloop
endfacet
facet normal 0.951056516295154 -0.309016994374947 0
outer loop
vertex 13.8819660112501 1.17557050458495 10
vertex 13.5 4.89858719658941e-016 10
vertex 13.8819660112501 1.17557050458495 6
endloop
endfacet
facet normal -0.951056516295152 0.309016994374954 6.9917013944022e-018
outer loop
vertex -35.3819660112501 -4.17557050458495 0
vertex -35 -3 10
vertex -35 -3 0
endloop
endfacet
facet normal -0.951056516295152 -0.309016994374954 -0
outer loop
vertex -35 -3 10
vertex -35.3819660112501 -1.82442949541505 10
vertex -35 -3 0
endloop
endfacet
facet normal -0.951056516295152 -0.309016994374954 0
outer loop
vertex -35 -3 0
vertex -35.3819660112501 -1.82442949541505 10
vertex -35.3819660112501 -1.82442949541505 0
endloop
endfacet
facet normal -0.587785252292475 -0.809016994374946 -0
outer loop
vertex -35.3819660112501 -1.82442949541505 10
vertex -36.3819660112501 -1.09788696740969 10
vertex -35.3819660112501 -1.82442949541505 0
endloop
endfacet
facet normal -0.587785252292475 -0.809016994374946 -6.9917013944022e-018
outer loop
vertex -35.3819660112501 -1.82442949541505 0
vertex -36.3819660112501 -1.09788696740969 10
vertex -36.3819660112501 -1.09788696740969 0
endloop
endfacet
facet normal -1.6167407300426e-015 -1 -0
outer loop
vertex -36.3819660112501 -1.09788696740969 10
vertex -37.6180339887499 -1.09788696740969 10
vertex -36.3819660112501 -1.09788696740969 0
endloop
endfacet
facet normal -1.6167407300426e-015 -1 0
outer loop
vertex -36.3819660112501 -1.09788696740969 0
vertex -37.6180339887499 -1.09788696740969 10
vertex -37.6180339887499 -1.09788696740969 0
endloop
endfacet
facet normal 0.587785252292471 -0.809016994374949 0
outer loop
vertex -37.6180339887499 -1.09788696740969 10
vertex -38.6180339887499 -1.82442949541505 10
vertex -37.6180339887499 -1.09788696740969 0
endloop
endfacet
facet normal 0.587785252292471 -0.809016994374949 -6.9917013944022e-018
outer loop
vertex -37.6180339887499 -1.09788696740969 0
vertex -38.6180339887499 -1.82442949541505 10
vertex -38.6180339887499 -1.82442949541505 0
endloop
endfacet
facet normal 0.951056516295153 -0.309016994374949 0
outer loop
vertex -38.6180339887499 -1.82442949541505 10
vertex -39 -3 10
vertex -38.6180339887499 -1.82442949541505 0
endloop
endfacet
facet normal 0.951056516295153 -0.309016994374949 0
outer loop
vertex -38.6180339887499 -1.82442949541505 0
vertex -39 -3 10
vertex -39 -3 0
endloop
endfacet
facet normal 0.951056516295153 0.309016994374948 0
outer loop
vertex -39 -3 10
vertex -38.6180339887499 -4.17557050458495 10
vertex -39 -3 0
endloop
endfacet
facet normal 0.951056516295153 0.309016994374948 6.9917013944022e-018
outer loop
vertex -39 -3 0
vertex -38.6180339887499 -4.17557050458495 10
vertex -38.6180339887499 -4.17557050458495 0
endloop
endfacet
facet normal 0.587785252292472 0.809016994374948 0
outer loop
vertex -38.6180339887499 -4.17557050458495 10
vertex -37.6180339887499 -4.90211303259031 10
vertex -38.6180339887499 -4.17557050458495 0
endloop
endfacet
facet normal 0.587785252292472 0.809016994374948 6.9917013944022e-018
outer loop
vertex -38.6180339887499 -4.17557050458495 0
vertex -37.6180339887499 -4.90211303259031 10
vertex -37.6180339887499 -4.90211303259031 0
endloop
endfacet
facet normal 1.43710287114898e-015 1 0
outer loop
vertex -37.6180339887499 -4.90211303259031 10
vertex -36.3819660112501 -4.90211303259031 10
vertex -37.6180339887499 -4.90211303259031 0
endloop
endfacet
facet normal 1.43710287114898e-015 1 0
outer loop
vertex -37.6180339887499 -4.90211303259031 0
vertex -36.3819660112501 -4.90211303259031 10
vertex -36.3819660112501 -4.90211303259031 0
endloop
endfacet
facet normal -0.587785252292472 0.809016994374948 0
outer loop
vertex -36.3819660112501 -4.90211303259031 10
vertex -35.3819660112501 -4.17557050458495 10
vertex -36.3819660112501 -4.90211303259031 0
endloop
endfacet
facet normal -0.587785252292472 0.809016994374948 -6.9917013944022e-018
outer loop
vertex -36.3819660112501 -4.90211303259031 0
vertex -35.3819660112501 -4.17557050458495 10
vertex -35.3819660112501 -4.17557050458495 0
endloop
endfacet
facet normal -0.951056516295152 0.309016994374953 0
outer loop
vertex -35.3819660112501 -4.17557050458495 10
vertex -35 -3 10
vertex -35.3819660112501 -4.17557050458495 0
endloop
endfacet
facet normal 0.951056516295152 -0.309016994374954 0
outer loop
vertex 35.3819660112501 -1.82442949541505 0
vertex 35 -3 10
vertex 35 -3 0
endloop
endfacet
facet normal 0.951056516295152 0.309016994374953 0
outer loop
vertex 35 -3 10
vertex 35.3819660112501 -4.17557050458495 10
vertex 35 -3 0
endloop
endfacet
facet normal 0.951056516295152 0.309016994374954 -6.9917013944022e-018
outer loop
vertex 35 -3 0
vertex 35.3819660112501 -4.17557050458495 10
vertex 35.3819660112501 -4.17557050458495 0
endloop
endfacet
facet normal 0.587785252292475 0.809016994374946 0
outer loop
vertex 35.3819660112501 -4.17557050458495 10
vertex 36.3819660112501 -4.90211303259031 10
vertex 35.3819660112501 -4.17557050458495 0
endloop
endfacet
facet normal 0.587785252292475 0.809016994374946 0
outer loop
vertex 35.3819660112501 -4.17557050458495 0
vertex 36.3819660112501 -4.90211303259031 10
vertex 36.3819660112501 -4.90211303259031 0
endloop
endfacet
facet normal 1.43710287114898e-015 1 0
outer loop
vertex 36.3819660112501 -4.90211303259031 10
vertex 37.6180339887499 -4.90211303259031 10
vertex 36.3819660112501 -4.90211303259031 0
endloop
endfacet
facet normal 1.43710287114898e-015 1 0
outer loop
vertex 36.3819660112501 -4.90211303259031 0
vertex 37.6180339887499 -4.90211303259031 10
vertex 37.6180339887499 -4.90211303259031 0
endloop
endfacet
facet normal -0.58778525229247 0.809016994374949 0
outer loop
vertex 37.6180339887499 -4.90211303259031 10
vertex 38.6180339887499 -4.17557050458495 10
vertex 37.6180339887499 -4.90211303259031 0
endloop
endfacet
facet normal -0.58778525229247 0.80901699437495 -6.9917013944022e-018
outer loop
vertex 37.6180339887499 -4.90211303259031 0
vertex 38.6180339887499 -4.17557050458495 10
vertex 38.6180339887499 -4.17557050458495 0
endloop
endfacet
facet normal -0.951056516295153 0.309016994374948 0
outer loop
vertex 38.6180339887499 -4.17557050458495 10
vertex 39 -3 10
vertex 38.6180339887499 -4.17557050458495 0
endloop
endfacet
facet normal -0.951056516295153 0.309016994374948 -6.9917013944022e-018
outer loop
vertex 38.6180339887499 -4.17557050458495 0
vertex 39 -3 10
vertex 39 -3 0
endloop
endfacet
facet normal -0.951056516295153 -0.309016994374949 -0
outer loop
vertex 39 -3 10
vertex 38.6180339887499 -1.82442949541505 10
vertex 39 -3 0
endloop
endfacet
facet normal -0.951056516295153 -0.309016994374949 0
outer loop
vertex 39 -3 0
vertex 38.6180339887499 -1.82442949541505 10
vertex 38.6180339887499 -1.82442949541505 0
endloop
endfacet
facet normal -0.587785252292472 -0.809016994374948 -0
outer loop
vertex 38.6180339887499 -1.82442949541505 10
vertex 37.6180339887499 -1.09788696740969 10
vertex 38.6180339887499 -1.82442949541505 0
endloop
endfacet
facet normal -0.587785252292472 -0.809016994374948 0
outer loop
vertex 38.6180339887499 -1.82442949541505 0
vertex 37.6180339887499 -1.09788696740969 10
vertex 37.6180339887499 -1.09788696740969 0
endloop
endfacet
facet normal -1.97601644782984e-015 -1 -0
outer loop
vertex 37.6180339887499 -1.09788696740969 10
vertex 36.3819660112501 -1.09788696740969 10
vertex 37.6180339887499 -1.09788696740969 0
endloop
endfacet
facet normal -1.97601644782984e-015 -1 0
outer loop
vertex 37.6180339887499 -1.09788696740969 0
vertex 36.3819660112501 -1.09788696740969 10
vertex 36.3819660112501 -1.09788696740969 0
endloop
endfacet
facet normal 0.587785252292473 -0.809016994374948 0
outer loop
vertex 36.3819660112501 -1.09788696740969 10
vertex 35.3819660112501 -1.82442949541505 10
vertex 36.3819660112501 -1.09788696740969 0
endloop
endfacet
facet normal 0.587785252292473 -0.809016994374948 6.9917013944022e-018
outer loop
vertex 36.3819660112501 -1.09788696740969 0
vertex 35.3819660112501 -1.82442949541505 10
vertex 35.3819660112501 -1.82442949541505 0
endloop
endfacet
facet normal 0.951056516295152 -0.309016994374954 0
outer loop
vertex 35.3819660112501 -1.82442949541505 10
vertex 35 -3 10
vertex 35.3819660112501 -1.82442949541505 0
endloop
endfacet
facet normal 0.980785280403231 -0.195090322016128 0
outer loop
vertex 41.5 -3 0
vertex 41.5 -3 10
vertex 41.1574578963008 -4.7220754456429 10
endloop
endfacet
facet normal 0.980785280403231 -0.195090322016128 0
outer loop
vertex 41.5 -3 0
vertex 41.1574578963008 -4.7220754456429 10
vertex 41.1574578963008 -4.7220754456429 0
endloop
endfacet
facet normal 0.831469612302545 -0.555570233019603 0
outer loop
vertex 41.1574578963008 -4.7220754456429 10
vertex 40.1819805153395 -6.18198051533946 10
vertex 41.1574578963008 -4.7220754456429 0
endloop
endfacet
facet normal 0.831469612302545 -0.555570233019603 0
outer loop
vertex 41.1574578963008 -4.7220754456429 0
vertex 40.1819805153395 -6.18198051533946 10
vertex 40.1819805153395 -6.18198051533946 0
endloop
endfacet
facet normal 0.555570233019602 -0.831469612302545 0
outer loop
vertex 40.1819805153395 -6.18198051533946 10
vertex 38.7220754456429 -7.15745789630079 10
vertex 40.1819805153395 -6.18198051533946 0
endloop
endfacet
facet normal 0.555570233019602 -0.831469612302545 0
outer loop
vertex 40.1819805153395 -6.18198051533946 0
vertex 38.7220754456429 -7.15745789630079 10
vertex 38.7220754456429 -7.15745789630079 0
endloop
endfacet
facet normal 0.195090322016128 -0.98078528040323 0
outer loop
vertex 38.7220754456429 -7.15745789630079 10
vertex 37 -7.5 10
vertex 38.7220754456429 -7.15745789630079 0
endloop
endfacet
facet normal 0.195090322016128 -0.980785280403231 0
outer loop
vertex 38.7220754456429 -7.15745789630079 0
vertex 37 -7.5 10
vertex 37 -7.5 0
endloop
endfacet
facet normal -0.195090322016129 -0.98078528040323 0
outer loop
vertex -37 -7.5 0
vertex -37 -7.5 10
vertex -38.7220754456429 -7.15745789630079 10
endloop
endfacet
facet normal -0.195090322016129 -0.98078528040323 0
outer loop
vertex -37 -7.5 0
vertex -38.7220754456429 -7.15745789630079 10
vertex -38.7220754456429 -7.15745789630079 0
endloop
endfacet
facet normal -0.555570233019603 -0.831469612302545 -0
outer loop
vertex -38.7220754456429 -7.15745789630079 10
vertex -40.1819805153395 -6.18198051533946 10
vertex -38.7220754456429 -7.15745789630079 0
endloop
endfacet
facet normal -0.555570233019603 -0.831469612302545 1.40900817347265e-017
outer loop
vertex -38.7220754456429 -7.15745789630079 0
vertex -40.1819805153395 -6.18198051533946 10
vertex -40.1819805153395 -6.18198051533946 0
endloop
endfacet
facet normal -0.831469612302544 -0.555570233019603 -0
outer loop
vertex -40.1819805153395 -6.18198051533946 10
vertex -41.1574578963008 -4.7220754456429 10
vertex -40.1819805153395 -6.18198051533946 0
endloop
endfacet
facet normal -0.831469612302544 -0.555570233019603 -1.40900817347265e-017
outer loop
vertex -40.1819805153395 -6.18198051533946 0
vertex -41.1574578963008 -4.7220754456429 10
vertex -41.1574578963008 -4.7220754456429 0
endloop
endfacet
facet normal -0.98078528040323 -0.195090322016128 -0
outer loop
vertex -41.1574578963008 -4.7220754456429 10
vertex -41.5 -3 10
vertex -41.1574578963008 -4.7220754456429 0
endloop
endfacet
facet normal -0.98078528040323 -0.195090322016128 0
outer loop
vertex -41.1574578963008 -4.7220754456429 0
vertex -41.5 -3 10
vertex -41.5 -3 0
endloop
endfacet
facet normal 0.156434465040231 0.987688340595138 -0
outer loop
vertex 34.5 7.5 0
vertex 34.5 7.5 10
vertex 36.6631189606246 7.15739561406607 10
endloop
endfacet
facet normal 0.156434465040231 0.987688340595138 0
outer loop
vertex 34.5 7.5 0
vertex 36.6631189606246 7.15739561406607 10
vertex 36.6631189606246 7.15739561406607 0
endloop
endfacet
facet normal 0.453990499739547 0.891006524188368 0
outer loop
vertex 36.6631189606246 7.15739561406607 10
vertex 38.6144967660473 6.16311896062463 10
vertex 36.6631189606246 7.15739561406607 0
endloop
endfacet
facet normal 0.453990499739547 0.891006524188368 -1.42067111986555e-017
outer loop
vertex 36.6631189606246 7.15739561406607 0
vertex 38.6144967660473 6.16311896062463 10
vertex 38.6144967660473 6.16311896062463 0
endloop
endfacet
facet normal 0.707106781186549 0.707106781186546 0
outer loop
vertex 38.6144967660473 6.16311896062463 10
vertex 40.1631189606246 4.61449676604731 10
vertex 38.6144967660473 6.16311896062463 0
endloop
endfacet
facet normal 0.707106781186549 0.707106781186546 -2.8413422397311e-017
outer loop
vertex 38.6144967660473 6.16311896062463 0
vertex 40.1631189606246 4.61449676604731 10
vertex 40.1631189606246 4.61449676604731 0
endloop
endfacet
facet normal 0.891006524188367 0.453990499739548 0
outer loop
vertex 40.1631189606246 4.61449676604731 10
vertex 41.1573956140661 2.66311896062463 10
vertex 40.1631189606246 4.61449676604731 0
endloop
endfacet
facet normal 0.891006524188367 0.453990499739548 1.42067111986555e-017
outer loop
vertex 40.1631189606246 4.61449676604731 0
vertex 41.1573956140661 2.66311896062463 10
vertex 41.1573956140661 2.66311896062463 0
endloop
endfacet
facet normal 0.987688340595138 0.156434465040231 0
outer loop
vertex 41.1573956140661 2.66311896062463 10
vertex 41.5 0.5 10
vertex 41.1573956140661 2.66311896062463 0
endloop
endfacet
facet normal 0.987688340595138 0.156434465040231 0
outer loop
vertex 41.1573956140661 2.66311896062463 0
vertex 41.5 0.5 10
vertex 41.5 0.5 0
endloop
endfacet
facet normal -0.987688340595138 0.156434465040231 0
outer loop
vertex -41.5 0.5 0
vertex -41.5 0.5 10
vertex -41.1573956140661 2.66311896062463 10
endloop
endfacet
facet normal -0.987688340595138 0.156434465040231 7.10335559932774e-018
outer loop
vertex -41.5 0.5 0
vertex -41.1573956140661 2.66311896062463 10
vertex -41.1573956140661 2.66311896062463 0
endloop
endfacet
facet normal -0.891006524188367 0.453990499739548 0
outer loop
vertex -41.1573956140661 2.66311896062463 10
vertex -40.1631189606246 4.61449676604731 10
vertex -41.1573956140661 2.66311896062463 0
endloop
endfacet
facet normal -0.891006524188367 0.453990499739548 -1.42067111986555e-017
outer loop
vertex -41.1573956140661 2.66311896062463 0
vertex -40.1631189606246 4.61449676604731 10
vertex -40.1631189606246 4.61449676604731 0
endloop
endfacet
facet normal -0.707106781186549 0.707106781186546 0
outer loop
vertex -40.1631189606246 4.61449676604731 10
vertex -38.6144967660473 6.16311896062463 10
vertex -40.1631189606246 4.61449676604731 0
endloop
endfacet
facet normal -0.707106781186549 0.707106781186546 2.8413422397311e-017
outer loop
vertex -40.1631189606246 4.61449676604731 0
vertex -38.6144967660473 6.16311896062463 10
vertex -38.6144967660473 6.16311896062463 0
endloop
endfacet
facet normal -0.453990499739546 0.891006524188368 0
outer loop
vertex -38.6144967660473 6.16311896062463 10
vertex -36.6631189606246 7.15739561406607 10
vertex -38.6144967660473 6.16311896062463 0
endloop
endfacet
facet normal -0.453990499739546 0.891006524188368 0
outer loop
vertex -38.6144967660473 6.16311896062463 0
vertex -36.6631189606246 7.15739561406607 10
vertex -36.6631189606246 7.15739561406607 0
endloop
endfacet
facet normal -0.156434465040231 0.987688340595138 0
outer loop
vertex -36.6631189606246 7.15739561406607 10
vertex -34.5 7.5 10
vertex -36.6631189606246 7.15739561406607 0
endloop
endfacet
facet normal -0.156434465040231 0.987688340595138 0
outer loop
vertex -36.6631189606246 7.15739561406607 0
vertex -34.5 7.5 10
vertex -34.5 7.5 0
endloop
endfacet
endsolid
